<?xml version="1.0"?>
<svg xmlns="http://www.w3.org/2000/svg" width="60.835" height="39.107" viewBox="0 0 60.835 39.107">
  <g id="ic-quote-green" transform="translate(0)" opacity="0.21">
    <path id="Path_635" data-name="Path 635" d="M26.108,47.708a14.118,14.118,0,0,0,2.422-28.03c-.369-4.974,3.736-9.166,3.779-9.209a1.086,1.086,0,0,0-.771-1.857.891.891,0,0,0-.282,0c-19.711,5.43-19.3,23.892-19.266,24.978A14.118,14.118,0,0,0,26.108,47.708Z" transform="translate(20.592 -8.6)" fill="#419b07"/>
    <path id="Path_636" data-name="Path 636" d="M42,33.614A14.118,14.118,0,1,0,58.54,19.68c-.369-4.974,3.736-9.166,3.779-9.209a1.086,1.086,0,0,0-.771-1.857.891.891,0,0,0-.282,0C41.555,14.131,42,32.6,42,33.614Z" transform="translate(-41.999 -8.602)" fill="#419b07"/>
  </g>
</svg>
