<?xml version="1.0"?>
<svg xmlns="http://www.w3.org/2000/svg" width="43.565" height="43.563" viewBox="0 0 43.565 43.563">
  <g id="Group_220" data-name="Group 220" transform="translate(-310 -839)">
    <g id="img" transform="translate(-391.527 738.139)">
      <path id="Path_549" data-name="Path 549" d="M749.222,128.825c-.638,2.156-3.273,3.33-4.481,5.089-1.251,1.822-1.424,4.692-3.142,6.009-1.736,1.329-4.559.746-6.619,1.478-2.039.724-3.861,2.965-6.071,3.022-2.132.056-4.067-2.061-6.222-2.7s-4.931.085-6.689-1.123c-1.822-1.251-2.131-4.122-3.448-5.84-1.33-1.735-4.016-2.783-4.748-4.843-.724-2.04.693-4.541.635-6.751-.056-2.132-1.627-4.552-.988-6.708s3.273-3.331,4.48-5.088c1.251-1.823,1.424-4.692,3.142-6.009,1.735-1.33,4.559-.747,6.619-1.478,2.04-.724,3.862-2.965,6.071-3.022,2.132-.056,4.066,2.061,6.222,2.7s4.931-.085,6.689,1.122c1.822,1.251,2.131,4.122,3.448,5.84,1.33,1.735,4.016,2.783,4.748,4.843.725,2.04-.693,4.541-.635,6.75.056,2.132,1.627,4.552.989,6.708" transform="translate(-5.026 0)" fill="#89ff7c"/>
      <path id="Path_550" data-name="Path 550" d="M745.092,128.665c0,2.248-2.193,4.122-2.852,6.151-.682,2.1-.033,4.9-1.307,6.653-1.287,1.767-4.159,2.01-5.927,3.3-1.75,1.273-2.861,3.939-4.964,4.621-2.029.659-4.484-.822-6.733-.822s-4.7,1.481-6.733.822c-2.1-.682-3.214-3.348-4.964-4.621-1.768-1.286-4.641-1.529-5.927-3.3-1.273-1.75-.624-4.551-1.307-6.653-.659-2.029-2.852-3.9-2.852-6.151s2.193-4.123,2.852-6.151c.683-2.1.034-4.9,1.307-6.653,1.286-1.768,4.159-2.01,5.927-3.3,1.75-1.274,2.861-3.939,4.964-4.621,2.029-.659,4.484.822,6.733.822s4.7-1.481,6.733-.822c2.1.683,3.214,3.347,4.964,4.621,1.768,1.286,4.641,1.528,5.927,3.3,1.274,1.75.624,4.551,1.307,6.653.659,2.028,2.852,3.9,2.852,6.151" transform="translate(0 -6.023)" fill="#1b3142"/>
      <path id="Path_551" data-name="Path 551" d="M762.214,143.107a18.932,18.932,0,1,1-18.932-18.932,18.932,18.932,0,0,1,18.932,18.932" transform="translate(-19.698 -20.31)" fill="#fff"/>
      <path id="Path_552" data-name="Path 552" d="M741.715,160.7a19.164,19.164,0,1,1,19.164-19.164A19.186,19.186,0,0,1,741.715,160.7m0-37.864a18.7,18.7,0,1,0,18.7,18.7,18.72,18.72,0,0,0-18.7-18.7" transform="translate(-18.315 -18.741)" fill="#46c138"/>
      <path id="Path_553" data-name="Path 553" d="M749.962,167.729a17.944,17.944,0,1,1,17.944-17.944,17.964,17.964,0,0,1-17.944,17.944m0-35.6a17.659,17.659,0,1,0,17.659,17.659,17.679,17.679,0,0,0-17.659-17.659" transform="translate(-26.564 -26.988)" fill="#46c138"/>
    </g>
    <path id="Path_688" data-name="Path 688" d="M316.8,859.66l4.458,5.649L332,857" transform="translate(7.7 -0.688)" fill="none" stroke="#1b3142" stroke-linecap="round" stroke-linejoin="round" stroke-width="3"/>
  </g>
</svg>
