<?xml version="1.0"?>
<svg xmlns="http://www.w3.org/2000/svg" width="123" height="122.995" viewBox="0 0 123 122.995">
  <g id="icon" transform="translate(-704.601 -3286.185)">
    <g id="Group_230" data-name="Group 230" transform="translate(3.074 3185.324)">
      <path id="Path_549" data-name="Path 549" d="M825.668,179.814c-1.8,6.087-9.241,9.4-12.651,14.367-3.533,5.145-4.019,13.248-8.87,16.965-4.9,3.754-12.871,2.107-18.688,4.174-5.758,2.045-10.9,8.37-17.14,8.532-6.02.158-11.481-5.819-17.568-7.621s-13.922.239-18.886-3.17c-5.145-3.532-6.017-11.638-9.735-16.488-3.754-4.9-11.339-7.858-13.4-13.673-2.045-5.759,1.957-12.821,1.793-19.06-.157-6.021-4.593-12.851-2.791-18.938s9.241-9.4,12.649-14.367c3.533-5.146,4.02-13.247,8.87-16.965,4.9-3.755,12.872-2.108,18.687-4.174,5.759-2.045,10.9-8.37,17.142-8.533,6.019-.158,11.481,5.82,17.568,7.622s13.921-.24,18.886,3.169c5.146,3.533,6.018,11.637,9.735,16.489,3.755,4.9,11.339,7.856,13.4,13.673,2.046,5.759-1.957,12.82-1.794,19.059.159,6.019,4.594,12.852,2.793,18.939" transform="translate(-3.67 0)" fill="#46c138"/>
      <path id="Path_550" data-name="Path 550" d="M824.527,166.756c0,6.348-6.193,11.639-8.053,17.367-1.927,5.936-.093,13.843-3.689,18.785-3.634,4.99-11.744,5.674-16.735,9.306-4.94,3.6-8.078,11.12-14.014,13.047-5.728,1.86-12.661-2.321-19.009-2.321s-13.282,4.181-19.009,2.321c-5.936-1.927-9.073-9.451-14.015-13.047-4.99-3.632-13.1-4.316-16.734-9.306-3.6-4.942-1.763-12.849-3.69-18.785-1.859-5.729-8.051-11.019-8.051-17.367s6.192-11.641,8.051-17.366c1.928-5.936.1-13.843,3.69-18.785,3.632-4.991,11.744-5.675,16.734-9.306,4.942-3.6,8.079-11.121,14.015-13.048,5.727-1.859,12.661,2.322,19.009,2.322s13.281-4.181,19.009-2.322c5.936,1.927,9.074,9.451,14.014,13.048,4.991,3.631,13.1,4.315,16.735,9.306,3.6,4.942,1.762,12.849,3.689,18.784,1.861,5.726,8.053,11.02,8.053,17.367" transform="translate(0 -4.398)" fill="#1b3142"/>
      <path id="Path_551" data-name="Path 551" d="M831.254,177.626A53.452,53.452,0,1,1,777.8,124.175a53.453,53.453,0,0,1,53.453,53.451" transform="translate(-13.999 -14.831)" fill="#fff"/>
      <path id="Path_552" data-name="Path 552" d="M776.657,230.588a54.107,54.107,0,1,1,54.107-54.108,54.168,54.168,0,0,1-54.107,54.108m0-106.9a52.8,52.8,0,1,0,52.8,52.795,52.855,52.855,0,0,0-52.8-52.795" transform="translate(-13.374 -13.686)" fill="#46c138"/>
      <path id="Path_553" data-name="Path 553" d="M782.68,233.166A50.662,50.662,0,1,1,833.341,182.5a50.72,50.72,0,0,1-50.661,50.663m0-100.521A49.858,49.858,0,1,0,832.537,182.5a49.914,49.914,0,0,0-49.858-49.858" transform="translate(-19.405 -19.708)" fill="#46c138"/>
    </g>
    <g id="Installation-steps_clean-and-repair" transform="translate(727.53 3305.828)">
      <g id="Layer_1" data-name="Layer 1" transform="translate(17.215 11.887)">
        <path id="Path_365" data-name="Path 365" d="M89.626,44.967c-2.532,4.973.3,11.49.3,11.49s6.922-1.544,9.467-6.519-.3-11.488-.3-11.488S92.155,39.994,89.626,44.967Z" transform="translate(-57.876 -30.981)" fill="#d2e7bc"/>
        <path id="Path_366" data-name="Path 366" d="M89.758,56.479a.2.2,0,0,1-.181-.117c-.032-.069-2.838-6.661-.293-11.661h0c2.545-5,9.525-6.608,9.584-6.623a.207.207,0,0,1,.224.117c0,.064,2.838,6.661.293,11.655s-9.531,6.607-9.584,6.623Zm-.122-11.6c-2.247,4.414-.162,10.159.24,11.182,1.065-.269,6.922-1.96,9.174-6.39S99.2,39.51,98.8,38.493c-1.065.272-6.922,1.966-9.169,6.389Z" transform="translate(-57.71 -30.806)" fill="#8abd5a"/>
        <path id="Path_367" data-name="Path 367" d="M99.714,49.187l-4.149.713,1.262-2.478,2.8-.836a.2.2,0,0,0,.133-.245.2.2,0,0,0-.245-.138l-2.46.713,1.411-2.758a.3.3,0,1,0-.532-.269l-2.284,4.478-1.6-2.9a.2.2,0,0,0-.346.192l1.752,3.131L94.6,50.481l-1.225-2.13a.2.2,0,1,0-.341.2L94.3,50.784a.186.186,0,0,0,.091.08l-.671,1.3-1.976-3.455a.2.2,0,1,0-.346.2l2.13,3.674-1.548,3.034-1.512-2.481a.2.2,0,1,0-.336.2l1.629,2.694-1.4,2.737a.3.3,0,0,0,.128.4.3.3,0,0,0,.133.032.293.293,0,0,0,.266-.165l2.44-4.792,6.07-.5a.2.2,0,0,0-.032-.394l-5.825.474,1.827-3.514,4.441-.767a.2.2,0,0,0,.162-.229.192.192,0,0,0-.255-.133Z" transform="translate(-58.588 -33.438)" fill="#8abd5a"/>
        <path id="Path_368" data-name="Path 368" d="M77.057,50.616c.878,6.427,7.912,10.769,7.912,10.769s5.591-6.075,4.707-12.5-7.9-10.765-7.9-10.765S76.175,44.2,77.057,50.616Z" transform="translate(-52.448 -30.826)" fill="#d2e7bc"/>
        <path id="Path_369" data-name="Path 369" d="M84.811,61.411a.192.192,0,0,1-.108-.032c-.069-.043-7.112-4.467-7.987-10.91s4.69-12.585,4.744-12.656a.2.2,0,0,1,.25-.037c.069.048,7.112,4.467,7.987,10.91s-4.691,12.624-4.749,12.662A.192.192,0,0,1,84.811,61.411ZM81.642,38.2c-.772.894-5.324,6.459-4.547,12.214s6.688,9.887,7.672,10.537c.772-.894,5.324-6.453,4.552-12.214S82.627,38.857,81.642,38.2Z" transform="translate(-52.289 -30.653)" fill="#8abd5a"/>
        <path id="Path_370" data-name="Path 370" d="M89.972,59.715l-.25-.3-3.429,2.827-.463-3.669,2.662-2.178a.2.2,0,0,0-.25-.3l-2.449,2.018-.578-4.658,2.353-2.06a.207.207,0,0,0,0-.282.2.2,0,0,0-.282,0L85.119,53,84.7,49.674,86.6,47.68a.2.2,0,0,0,0-.277.2.2,0,0,0-.282,0l-1.684,1.759-.458-3.674a.3.3,0,0,0-.586.074l.726,5.8L80.806,49.65a.2.2,0,1,0-.17.351l3.727,1.827.575,4.552-4.418-2.13a.2.2,0,0,0-.17.357l4.665,2.217h0l.99,7.92a.3.3,0,0,0,.293.261h.037a.293.293,0,0,0,.255-.33l-.24-2Z" transform="translate(-53.982 -34.154)" fill="#8abd5a"/>
        <path id="Path_372" data-name="Path 372" d="M47.344,54.445a.192.192,0,0,1-.181-.117c-.048-.108-4.643-10.91-.474-19.083h0c4.168-8.168,15.6-10.793,15.721-10.819a.2.2,0,0,1,.224.117c.048.108,4.637,10.91.474,19.078S47.5,54.421,47.385,54.44Zm-.479-19.109.176.091c-3.818,7.454-.117,17.256.421,18.593,1.391-.352,11.477-3.1,15.3-10.574s.117-17.262-.421-18.593c-1.39.346-11.506,3.071-15.3,10.574Z" transform="translate(-37.476 -24.422)" fill="#8abd5a"/>
        <g id="Group_213" data-name="Group 213">
          <path id="Path_371" data-name="Path 371" d="M47.024,35.508c-4.175,8.184.479,18.912.479,18.912s11.415-2.534,15.59-10.713-.479-18.918-.479-18.918S51.2,27.324,47.024,35.508Z" transform="translate(-37.637 -24.593)" fill="#d2e7bc"/>
          <path id="Path_373" data-name="Path 373" d="M65.017,40.832l-7.774,1.347,2.2-4.345,4.5-1.3a.2.2,0,0,0,.133-.245.192.192,0,0,0-.245-.133l-4.149,1.2,3.489-6.884a.3.3,0,0,0-.128-.4.293.293,0,0,0-.4.133l-2.071,4.073-1.331-2.8a.2.2,0,0,0-.357.17l1.459,3.088-2.609,5.154-3.567-6.39a.2.2,0,0,0-.346.192l3.695,6.612-1.369,2.7-1.874-3.944a.192.192,0,0,0-.261-.091.2.2,0,0,0-.091.261l2,4.206-1.352,2.662-3.429-6.762a.207.207,0,0,0-.266-.091.2.2,0,0,0-.085.266l3.556,7.055L49.3,56.539a.3.3,0,0,0,.133.4.288.288,0,0,0,.133.032.309.309,0,0,0,.266-.165l3.9-7.7,10.058-.818a.2.2,0,0,0,.181-.216.192.192,0,0,0-.216-.181l-9.81.8,3.078-6.075L65.1,41.2a.192.192,0,0,0,.165-.224.2.2,0,0,0-.25-.144Z" transform="translate(-39.502 -27.047)" fill="#8abd5a"/>
        </g>
        <path id="Path_374" data-name="Path 374" d="M39.549,44.816c.879,6.427,7.9,10.761,7.9,10.761s5.607-6.065,4.712-12.492S44.256,32.32,44.256,32.32,38.681,38.4,39.549,44.816Z" transform="translate(-34.912 -28.115)" fill="#d2e7bc"/>
        <path id="Path_375" data-name="Path 375" d="M47.286,55.629a.181.181,0,0,1-.1,0c-.074-.043-7.112-4.467-7.987-10.91s4.7-12.6,4.76-12.656a.2.2,0,0,1,.25-.037c.069.043,7.112,4.467,7.987,10.91s-4.707,12.6-4.766,12.662a.208.208,0,0,1-.144.032Zm-3.157-23.2c-.77.894-5.324,6.453-4.552,12.214h0c.793,5.765,6.688,9.887,7.678,10.537.772-.894,5.324-6.453,4.547-12.214S45.114,33.064,44.129,32.426Z" transform="translate(-34.747 -27.964)" fill="#8abd5a"/>
        <path id="Path_376" data-name="Path 376" d="M52.035,49.2a.2.2,0,0,0-.277,0l-3.12,2.551L48,47.2,51.2,44.6a.207.207,0,0,0,0-.282.2.2,0,0,0-.277,0L47.94,46.75l-.32-2.322L49.5,42.692a.2.2,0,0,0,0-.277.2.2,0,0,0-.282,0l-1.67,1.544-.266-1.933,2.3-2.493a.2.2,0,0,0,0-.282.207.207,0,0,0-.282,0L47.218,41.5l-.532-3.892a.3.3,0,0,0-.336-.255.3.3,0,0,0-.25.336l.953,6.927L43.633,43.2a.192.192,0,0,0-.255.108.2.2,0,0,0,.1.261l3.637,1.509.532,3.642-4.26-1.523a.2.2,0,1,0-.133.373l4.483,1.6.114,1.275-2.9-1.027a.2.2,0,0,0-.255.122.2.2,0,0,0,.122.25l3.1,1.1.953,6.863a.3.3,0,0,0,.293.255h.043a.3.3,0,0,0,.24-.341L48.7,52.212l3.307-2.732a.2.2,0,0,0,.026-.276Z" transform="translate(-36.627 -30.468)" fill="#8abd5a"/>
        <path id="Path_377" data-name="Path 377" d="M74.044,112.751H44.36l.026.394H74.725L76.548,87.37l-.767.74Z" transform="translate(-37.204 -53.853)" fill="none"/>
        <path id="Path_378" data-name="Path 378" d="M35.494,74.93a1.033,1.033,0,0,0-.719,1.773l1.539,1.491-.229-3.264Z" transform="translate(-32.577 -48.037)" fill="none"/>
        <path id="Path_379" data-name="Path 379" d="M108.478,76.7a1.033,1.033,0,0,0-.719-1.773h-.769l-.245,3.445Z" transform="translate(-66.373 -48.037)" fill="none"/>
        <path id="Path_380" data-name="Path 380" d="M104.378,65.81l-.7,9.866.767-.74.647-9.126Z" transform="translate(-64.94 -43.773)" fill="none"/>
        <path id="Path_381" data-name="Path 381" d="M38.25,85.48l1.864,26.388h.6L38.9,86.108Z" transform="translate(-34.348 -52.97)" fill="none"/>
        <path id="Path_382" data-name="Path 382" d="M73.5,78.028l-9.041,8.759-1.1-1.131,10.3-9.983.7-9.866H39.48l.676,9.568L50.77,85.654l-1.1,1.131-9.352-9.057,1.756,24.94H71.765Z" transform="translate(-33.923 -43.77)" fill="#c7cad3"/>
        <path id="Path_383" data-name="Path 383" d="M37.338,63.984h35.78l.026-.394H36.71l.314,4.462h.6Z" transform="translate(-33.628 -42.735)" fill="none"/>
        <path id="Path_384" data-name="Path 384" d="M37.51,74.94l.229,3.259.647.623-.269-3.879Z" transform="translate(-34.001 -48.042)" fill="none"/>
        <path id="Path_385" data-name="Path 385" d="M74.033,112.425H43.695l-.026-.394H42.88l.08,1.182H74.768L76.7,85.83l-.846.82Z" transform="translate(-35.513 -52.133)" fill="none"/>
        <path id="Path_386" data-name="Path 386" d="M105.7,65.118l-.647,9.126.849-.825.245-3.44h-.269V68.4h.384l.288-4.068h-1.509l-.054.788Z" transform="translate(-65.553 -43.081)" fill="none"/>
        <path id="Path_387" data-name="Path 387" d="M40.316,87.48l-.846-.82,1.816,25.76h.787Z" transform="translate(-34.918 -53.521)" fill="none"/>
        <path id="Path_388" data-name="Path 388" d="M38.178,68.4h.49v1.581H38.29l.269,3.879.852.825-.675-9.566H73.617l.054-.788H37.89Z" transform="translate(-34.179 -43.081)" fill="none"/>
        <path id="Path_389" data-name="Path 389" d="M33.376,75.3a1.033,1.033,0,0,1,.719-1.773h.593l-.112-1.6H34.1a2.609,2.609,0,0,0-1.81,4.5l2.8,2.716-.165-2.359Z" transform="translate(-31.177 -46.634)" fill="#4d4e50"/>
        <path id="Path_390" data-name="Path 390" d="M38.583,81.683l-.647-.623.165,2.353.65.628Z" transform="translate(-34.201 -50.903)" fill="#4d4e50"/>
        <path id="Path_391" data-name="Path 391" d="M51.362,94.061,40.75,83.78l.165,2.353,9.35,9.057Z" transform="translate(-35.517 -52.175)" fill="#4d4e50"/>
        <path id="Path_392" data-name="Path 392" d="M38.013,73.546,37.9,71.965h-.6l.112,1.581Z" transform="translate(-33.903 -46.651)" fill="#e4e4e4"/>
        <path id="Path_393" data-name="Path 393" d="M38.92,71.97h-.49l.112,1.581h.377Z" transform="translate(-34.432 -46.653)" fill="#b3b3b3"/>
        <path id="Path_394" data-name="Path 394" d="M39.15,82.23l.17,2.359.846.82L40,83.055Z" transform="translate(-34.769 -51.45)" fill="#419b07"/>
        <path id="Path_395" data-name="Path 395" d="M110.2,74.579A2.614,2.614,0,0,0,107.6,71.97h-.655l-.112,1.6h.767a1.033,1.033,0,0,1,.74,1.752l-1.731,1.67-.165,2.359,2.96-2.9a2.662,2.662,0,0,0,.8-1.873Z" transform="translate(-66.23 -46.653)" fill="#4d4e50"/>
        <path id="Path_396" data-name="Path 396" d="M103.37,86.044l.767-.74.165-2.353-.767.74Z" transform="translate(-64.795 -51.787)" fill="#419b07"/>
        <path id="Path_397" data-name="Path 397" d="M85.427,95.452l9.041-8.759.165-2.353-10.3,9.983Z" transform="translate(-55.892 -52.437)" fill="#4d4e50"/>
        <path id="Path_398" data-name="Path 398" d="M106.658,73.546h.269l.112-1.581h-.384Z" transform="translate(-66.331 -46.651)" fill="#b3b3b3"/>
        <path id="Path_399" data-name="Path 399" d="M104.975,82.225l-.165,2.353.846-.82.165-2.359Z" transform="translate(-65.468 -51.062)" fill="#4d4e50"/>
        <rect id="Rectangle_272" data-name="Rectangle 272" width="16.074" height="3.482" rx="1.741" transform="translate(14.045 40.22)" fill="#4d4e50"/>
        <path id="Path_400" data-name="Path 400" d="M71.292,103.5H58.7a2.13,2.13,0,0,1,0-4.26H71.292a2.13,2.13,0,0,1,0,4.26ZM58.7,100.017a1.347,1.347,0,0,0,0,2.694H71.292a1.347,1.347,0,0,0,0-2.694Z" transform="translate(-42.913 -59.403)" fill="none"/>
        <g id="Group_145" data-name="Group 145" transform="translate(4.344 21.814)" opacity="0.1">
          <path id="Path_429" data-name="Path 429" d="M39.08,65.39l35.088.138-.133,1.97-34.849-.032Z" transform="translate(-39.08 -65.39)" fill="#939598"/>
        </g>
        <path id="Path_430" data-name="Path 430" d="M74.506,61.306H32.71L31.64,57.02H75.584Z" transform="translate(-31.257 -35.663)" fill="#4d4e50"/>
        <g id="Group_215" data-name="Group 215" transform="translate(-10.661 72.241) rotate(-89)">
          <path id="Path_371-2" data-name="Path 371" d="M46.3,31.03c-2.431,4.765.279,11.012.279,11.012s6.647-1.475,9.078-6.238-.279-11.015-.279-11.015S48.728,26.265,46.3,31.03Z" transform="translate(-37.637 -24.593)" fill="#d2e7bc"/>
          <path id="Path_373-2" data-name="Path 373" d="M58.44,36.323l-4.526.784,1.28-2.53,2.623-.756a.118.118,0,0,0,.077-.143.112.112,0,0,0-.143-.077l-2.416.7,2.031-4.008a.173.173,0,0,0-.074-.232.171.171,0,0,0-.232.077l-1.206,2.372-.775-1.628a.115.115,0,0,0-.208.1l.85,1.8-1.519,3-2.077-3.72a.115.115,0,0,0-.2.112l2.151,3.85-.8,1.575-1.091-2.3a.112.112,0,0,0-.152-.053.115.115,0,0,0-.053.152l1.166,2.449-.787,1.55-2-3.937a.121.121,0,0,0-.155-.053.118.118,0,0,0-.05.155l2.071,4.108-2.939,5.8a.177.177,0,0,0,.077.232.168.168,0,0,0,.077.019.18.18,0,0,0,.155-.1l2.269-4.486,5.857-.476a.115.115,0,0,0,.105-.125.112.112,0,0,0-.125-.105l-5.712.468,1.792-3.538,4.7-.824a.112.112,0,0,0,.1-.13.118.118,0,0,0-.146-.084Z" transform="translate(-40.389 -28.215)" fill="#8abd5a"/>
        </g>
        <g id="Group_216" data-name="Group 216" transform="translate(41.781 43.815) rotate(42)">
          <path id="Path_371-3" data-name="Path 371" d="M45.876,28.435c-1.42,2.783.163,6.432.163,6.432s3.883-.862,5.3-3.644-.163-6.434-.163-6.434S47.3,25.651,45.876,28.435Z" transform="translate(-37.637 -24.593)" fill="#d2e7bc"/>
          <path id="Path_373-3" data-name="Path 373" d="M54.628,33.709l-2.644.458.748-1.478,1.532-.442a.069.069,0,0,0,.045-.083.065.065,0,0,0-.083-.045l-1.411.407L54,30.185a.1.1,0,0,0-.043-.136.1.1,0,0,0-.136.045l-.7,1.385-.453-.951a.067.067,0,0,0-.121.058l.5,1.05-.887,1.753-1.213-2.173a.067.067,0,0,0-.118.065l1.257,2.249-.465.92-.637-1.341a.065.065,0,0,0-.089-.031.067.067,0,0,0-.031.089l.681,1.431-.46.905-1.166-2.3a.071.071,0,0,0-.091-.031.069.069,0,0,0-.029.091L51,35.663l-1.717,3.388a.1.1,0,0,0,.045.136.1.1,0,0,0,.045.011.105.105,0,0,0,.091-.056l1.326-2.621,3.421-.278a.067.067,0,0,0,.062-.073.065.065,0,0,0-.073-.062l-3.337.274,1.047-2.066,2.747-.482a.065.065,0,0,0,.056-.076.069.069,0,0,0-.085-.049Z" transform="translate(-40.904 -28.892)" fill="#8abd5a"/>
        </g>
      </g>
    </g>
  </g>
</svg>
